{"title":"PervsOnPatrol - Nicole Aniston (mobile)","uid":11057844,"size":165196693,"categoryP":"porn","categoryS":"movie_clips","magnet":"?xt=urn:btih:2cd2165d0e8d7294ed5c87585f0873ea04aba947&amp;dn=PervsOnPatrol+-+Nicole+Aniston+%28mobile%29&amp;tr=udp%3A%2F%2Ftracker.openbittorrent.com%3A80&amp;tr=udp%3A%2F%2Fopen.demonii.com%3A1337&amp;tr=udp%3A%2F%2Ftracker.coppersurfer.tk%3A6969&amp;tr=udp%3A%2F%2Fexodus.desync.com%3A6969","seeders":1,"leechers":1,"uploader":"supertongo","files":1,"time":1411135599,"description":"PervsOnPatrol - Nicole Aniston video in mobile compatible resolution\n\n\n:::Media info:::\n\nGeneral\nFormat                         : MPEG-4\nFormat profile                 : Base Media / Version 2\nCodec ID                       : mp42\nFile size                      : 158 MiB\nDuration                       : 48mn 10s\nOverall bit rate mode          : Variable\nOverall bit rate               : 457 Kbps\nEncoded date                   : UTC 2011-06-10 17:01:06\nTagged date                    : UTC 2011-06-10 17:24:55\nWriting application            : HandBrake 0.9.4 2009112300\n\nVideo\nID                             : 1\nFormat                         : AVC\nFormat/Info                    : Advanced Video Codec\nFormat profile                 : &lt;a class=&quot;__cf_email__&quot; href=&quot;/cdn-cgi/l/email-protection&quot; data-cfemail=&quot;3d7f5c4e58515453587d710e130d&quot;&gt;[email&amp;#160;protected]&lt;/a&gt;&lt;script data-cfhash='f9e31' type=&quot;text/javascript&quot;&gt;\n/* &lt;![CDATA[ */!function(){try{var t=&quot;currentScript&quot;in document?document.currentScript:function(){for(var t=document.getElementsByTagName(&quot;script&quot;),e=t.length;e--;)if(t[e].getAttribute(&quot;data-cfhash&quot;))return t[e]}();if(t&amp;&amp;t.previousSibling){var e,r,n,i,c=t.previousSibling,a=c.getAttribute(&quot;data-cfemail&quot;);if(a){for(e=&quot;&quot;,r=parseInt(a.substr(0,2),16),n=2;a.length-n;n+=2)i=parseInt(a.substr(n,2),16)^r,e+=String.fromCharCode(i);e=document.createTextNode(e),c.parentNode.replaceChild(e,c)}t.parentNode.removeChild(t);}}catch(u){}}()/* ]]&gt; */&lt;/script&gt;\nFormat settings, CABAC         : No\nFormat settings, ReFrames      : 2 frames\nCodec ID                       : avc1\nCodec ID/Info                  : Advanced Video Coding\nDuration                       : 48mn 10s\nDuration_FirstFrame            : 67ms\nBit rate                       : 303 Kbps\nWidth                          : 480 pixels\nHeight                         : 272 pixels\nDisplay aspect ratio           : 16:9\nFrame rate mode                : Constant\nFrame rate                     : 29.970 fps\nColor space                    : YUV\nChroma subsampling             : 4:2:0\nBit depth                      : 8 bits\nScan type                      : Progressive\nBits/(Pixel*Frame)             : 0.077\nStream size                    : 104 MiB (66%)\n\nAudio\nID                             : 2\nFormat                         : AAC\nFormat/Info                    : Advanced Audio Codec\nFormat profile                 : LC\nCodec ID                       : 40\nDuration                       : 48mn 10s\nBit rate mode                  : Variable\nBit rate                       : 128 Kbps\nMaximum bit rate               : 164 Kbps\nChannel(s)                     : 2 channels\nChannel positions              : Front: L R\nSampling rate                  : 48.0 KHz\nCompression mode               : Lossy\nStream size                    : 44.1 MiB (28%)\nLanguage                       : English\n\n\nMenu\nID                             : 3\nCodec ID                       : text\nDuration                       : 48mn 10s\nEncoded date                   : UTC 2011-06-10 17:01:06\nTagged date                    : UTC 2011-06-09 17:25:05\n &lt;a href=&quot;\nhttp://bayimg.com/MAAnaAagH&quot; rel=&quot;nofollow&quot; target=&quot;_NEW&quot;&gt;\nhttp://bayimg.com/MAAnaAagH&lt;/a&gt;","torrent":{"xt":"urn:btih:2cd2165d0e8d7294ed5c87585f0873ea04aba947","amp;dn":"PervsOnPatrol+-+Nicole+Aniston+%28mobile%29","amp;tr":["udp%3A%2F%2Ftracker.openbittorrent.com%3A80","udp%3A%2F%2Fopen.demonii.com%3A1337","udp%3A%2F%2Ftracker.coppersurfer.tk%3A6969","udp%3A%2F%2Fexodus.desync.com%3A6969"],"infoHash":"2cd2165d0e8d7294ed5c87585f0873ea04aba947","infoHashBuffer":{"type":"Buffer","data":[44,210,22,93,14,141,114,148,237,92,135,88,95,8,115,234,4,171,169,71]},"announce":[],"urlList":[]}}